<svg width="80" height="80" viewBox="0 0 80 80" fill="none" xmlns="http://www.w3.org/2000/svg">
<g clip-path="url(#clip0_40_19)">
<path d="M37.9097 43.3674C37.9097 43.6773 38.1609 43.9286 38.4709 43.9286H39.1893C39.0672 43.5678 39.0232 43.1852 39.0602 42.8062H38.4709C38.1609 42.8062 37.9097 43.0574 37.9097 43.3674Z" fill="#2E2B44"/>
<path d="M42.3529 24.3258C41.9161 24.2327 41.4601 24.317 41.0854 24.5601C40.7106 24.8033 40.4479 25.1853 40.355 25.6223L38.7387 35.9264C38.666 36.3185 38.3298 36.607 37.9312 36.6191C37.5326 36.6313 37.1794 36.3639 37.083 35.9769L35.1019 26.8626C35.0136 26.2532 34.5996 25.7407 34.0225 25.5261C33.4453 25.3115 32.7971 25.4291 32.3321 25.8327C31.8671 26.2362 31.6594 26.8615 31.7907 27.4631L33.6708 37.7559C33.8158 38.5397 33.8063 39.3442 33.6427 40.1243C34.2167 39.5579 34.8299 39.0328 35.4779 38.5529C36.1521 38.0386 36.9759 37.7588 37.8239 37.7559H41.5728L43.6494 26.3294C43.7442 25.8917 43.6607 25.4343 43.4174 25.0583C43.1741 24.6823 42.7911 24.4187 42.3529 24.3258Z" fill="#2E2B44"/>
<path d="M43.1224 45.1183C42.8294 45.3305 42.4976 45.4831 42.1458 45.5673C42.222 45.6896 42.2895 45.8172 42.3479 45.9489C42.4233 46.1218 42.4069 46.3211 42.3041 46.4793C42.2012 46.6375 42.0258 46.7334 41.8372 46.7347C41.6153 46.7332 41.4152 46.6012 41.3264 46.3979C40.9683 45.5772 40.1566 45.0479 39.2611 45.051H38.4698C37.5399 45.051 36.7861 44.2972 36.7861 43.3673C36.7861 42.4374 37.5399 41.6836 38.4698 41.6836H40.1535C41.3933 41.6836 42.3984 40.6786 42.3984 39.4387V38.8775H37.8244C37.2172 38.8775 36.6265 39.0744 36.1407 39.4387C33.9407 41.0775 31.7351 43.5188 31.7351 46.3025C31.7335 47.5568 32.1261 48.7799 32.8576 49.7989L35.6637 53.6714C36.09 54.2629 36.2892 54.988 36.2249 55.7142H45.7657C45.7657 54.1877 45.6142 54.5918 48.0836 50.3882C48.733 49.0753 49.091 47.6376 49.1331 46.1734V43.5806L47.8254 45.6627C47.3098 46.5515 46.3162 47.0499 45.2955 46.9318C44.2748 46.8136 43.4213 46.1014 43.1224 45.1183Z" fill="#2E2B44"/>
<path d="M40.1801 42.8061C40.0772 43.2768 40.221 43.7674 40.5617 44.1081C40.9024 44.4488 41.3931 44.5926 41.8638 44.4897C42.6776 44.3101 42.9862 43.676 43.4072 42.9576C45.6969 39.2984 45.6128 39.4443 45.6521 39.3321C46.1674 38.6082 45.9992 37.6036 45.276 37.0872C44.9119 36.8836 44.4814 36.8343 44.0807 36.9503C43.68 37.0663 43.3424 37.3379 43.1434 37.7045L42.9918 37.9459C43.314 38.1471 43.5125 38.4977 43.5194 38.8775V39.4387C43.5195 41.2875 42.0289 42.7907 40.1801 42.8061Z" fill="#2E2B44"/>
<path d="M49.0224 38.8774C48.2935 38.4623 47.3663 38.7129 46.9458 39.4387C46.6203 39.9662 47.1703 39.0346 44.3698 43.5581C44.1489 43.9065 44.0762 44.3287 44.1678 44.731C44.315 45.3223 44.813 45.7607 45.4182 45.8318C46.0234 45.9029 46.6094 45.5919 46.8897 45.0509L49.4713 40.9484C49.9192 40.2525 49.7182 39.3254 49.0224 38.8774Z" fill="#2E2B44"/>
</g>
<path fill-rule="evenodd" clip-rule="evenodd" d="M24.6927 3.04482C29.5457 1.03463 34.7471 0 40 0C45.2529 0 50.4543 1.03463 55.3073 3.04482C60.1604 5.05501 64.5699 8.00138 68.2843 11.7157C71.9986 15.4301 74.945 19.8396 76.9552 24.6927C78.9654 29.5457 80 34.7471 80 40C80 50.6087 75.7857 60.7828 68.2843 68.2843C60.7828 75.7857 50.6087 80 40 80C34.7471 80 29.5457 78.9654 24.6927 76.9552C19.8396 74.945 15.4301 71.9986 11.7157 68.2843C4.21427 60.7828 0 50.6087 0 40C0 29.3913 4.21427 19.2172 11.7157 11.7157C15.4301 8.00138 19.8396 5.05501 24.6927 3.04482ZM40.3571 62.1429C52.3891 62.1429 62.1429 52.3891 62.1429 40.3571C62.1429 28.3252 52.3891 18.5714 40.3571 18.5714C28.3252 18.5714 18.5714 28.3252 18.5714 40.3571C18.5714 52.3891 28.3252 62.1429 40.3571 62.1429Z" fill="#3F2AFF"/>
<defs>
<clipPath id="clip0_40_19">
<rect width="31.4286" height="31.4286" fill="white" transform="translate(25 24.2857)"/>
</clipPath>
</defs>
</svg>
